<?xml version="1.0" standalone="no"?>
<!DOCTYPE svg PUBLIC "-//W3C//DTD SVG 20010904//EN"
 "http://www.w3.org/TR/2001/REC-SVG-20010904/DTD/svg10.dtd">
<svg version="1.0" xmlns="http://www.w3.org/2000/svg"
 width="1024.000000pt" height="1024.000000pt" viewBox="0 0 1024.000000 1024.000000"
 preserveAspectRatio="xMidYMid meet">
<metadata>
Created by potrace 1.11, written by Peter Selinger 2001-2013
</metadata>
<g transform="translate(0.000000,1024.000000) scale(0.100000,-0.100000)"
fill="#000000" stroke="none">
<path d="M1735 10231 c3 -6 -14 -19 -38 -29 -25 -11 -53 -32 -63 -48 -11 -15
-35 -44 -55 -63 -20 -20 -38 -43 -42 -53 -3 -9 -19 -19 -36 -23 -17 -4 -31
-11 -31 -17 0 -18 -50 -78 -64 -78 -8 0 -16 -7 -20 -15 -3 -8 -12 -15 -19 -15
-8 0 -20 -7 -27 -15 -7 -8 -20 -15 -30 -15 -9 0 -27 -9 -40 -20 -13 -11 -29
-20 -37 -20 -7 0 -16 -6 -19 -14 -3 -8 -20 -20 -37 -27 -18 -7 -41 -21 -52
-31 -37 -35 -125 -87 -131 -77 -8 14 -24 0 -24 -22 0 -11 -8 -22 -17 -25 -41
-13 -86 -41 -115 -71 -21 -21 -42 -33 -59 -33 -21 0 -29 -7 -37 -29 -8 -22
-18 -30 -49 -36 -32 -6 -35 -9 -18 -15 18 -8 18 -9 2 -9 -11 -1 -21 -10 -24
-21 -3 -11 -21 -27 -39 -36 -21 -10 -34 -24 -34 -35 0 -14 -10 -20 -40 -25
-23 -4 -40 -12 -40 -19 0 -8 -18 -32 -40 -55 -22 -23 -40 -48 -40 -55 0 -11
-6 -12 -22 -6 -13 5 -22 14 -20 20 1 6 -5 11 -13 11 -14 0 -20 -15 -27 -65 -2
-13 -12 -21 -29 -23 -16 -2 -32 -13 -40 -28 -7 -14 -25 -28 -41 -31 -25 -5
-33 -14 -29 -36 1 -4 -11 -15 -27 -25 -15 -9 -26 -24 -24 -33 3 -19 -34 -69
-53 -69 -7 0 -16 -6 -18 -12 -3 -8 -6 -6 -6 5 -1 9 -5 17 -11 17 -14 0 -13
-23 2 -38 8 -8 5 -14 -16 -22 -15 -5 -32 -8 -37 -4 -5 3 -9 -286 -9 -726 0
-534 3 -729 11 -724 15 9 29 -14 29 -49 0 -21 -6 -30 -20 -34 -18 -5 -20 -14
-20 -84 0 -91 4 -94 77 -53 25 14 55 24 67 23 37 -2 46 1 46 15 0 8 7 22 16
30 9 9 17 22 18 30 1 7 10 26 20 41 13 20 15 30 8 33 -20 6 -13 22 9 22 11 0
17 -4 14 -10 -3 -5 5 -12 19 -16 14 -3 28 -15 31 -25 4 -10 10 -19 15 -19 22
0 40 14 40 32 0 28 26 53 37 35 15 -23 61 -48 66 -34 2 6 7 -7 10 -31 5 -29
12 -42 23 -42 11 0 14 5 10 17 -4 9 -2 20 5 23 19 12 47 0 53 -23 6 -21 8 -20
36 13 34 41 35 44 15 64 -17 16 -19 44 -6 65 8 12 18 13 56 4 50 -11 64 -2 51
34 -17 44 47 130 74 98 6 -7 17 -12 24 -9 13 5 28 -23 30 -56 1 -8 12 -17 25
-18 20 -3 23 -1 18 20 -5 18 0 27 24 41 42 23 58 22 69 -8 12 -31 50 -35 50
-5 0 11 6 23 13 26 24 9 102 -34 162 -91 l60 -56 55 4 c30 3 61 6 69 8 8 2 17
-5 20 -16 4 -13 16 -21 36 -22 16 -1 31 -7 33 -13 2 -6 16 -16 30 -21 22 -8
23 -11 10 -22 -19 -14 -18 -69 0 -75 7 -2 16 5 19 17 3 12 9 21 14 21 13 0 11
-84 -3 -98 -9 -9 -9 -15 -1 -23 16 -16 4 -49 -22 -59 -13 -5 -48 -3 -90 6 -37
8 -73 13 -79 12 -6 -1 -29 4 -51 10 -51 15 -55 15 -55 -3 0 -8 -6 -15 -13 -15
-7 0 -26 -16 -42 -35 -17 -19 -38 -35 -47 -35 -10 0 -18 -4 -18 -10 0 -5 -7
-10 -15 -10 -8 0 -15 5 -15 10 0 6 -17 10 -38 10 -25 0 -45 7 -56 18 -9 11
-34 25 -56 32 -36 12 -45 11 -78 -6 -20 -10 -48 -21 -61 -24 -19 -4 -24 -12
-25 -47 -1 -24 -5 -45 -8 -49 -13 -12 -47 8 -50 29 -2 12 -10 22 -18 22 -8 0
-18 5 -22 10 -5 6 -12 4 -19 -5 -8 -12 -12 -12 -16 -2 -4 10 -9 8 -19 -6 -10
-15 -11 -27 -3 -53 11 -35 11 -35 77 -37 72 -2 95 -17 74 -49 -6 -10 -19 -9
-57 2 -27 9 -56 13 -66 10 -9 -3 -19 0 -22 8 -8 21 -71 10 -128 -22 -9 -5 -21
-6 -28 -2 -7 5 -28 0 -48 -10 -34 -17 -37 -17 -84 2 -28 10 -54 19 -59 19 -19
0 -10 -28 11 -33 33 -9 16 -31 -31 -40 -32 -7 -45 -5 -51 5 -7 10 -9 9 -9 -5
0 -11 -6 -17 -12 -14 -7 2 -19 -9 -25 -25 -7 -16 -16 -27 -20 -25 -19 11 -47
-12 -57 -48 -6 -21 -15 -36 -19 -34 -4 2 -17 -10 -27 -27 -11 -17 -31 -37 -45
-44 l-25 -13 0 -764 c0 -749 0 -763 19 -763 11 0 23 4 26 10 10 16 83 11 123
-9 37 -18 104 -32 173 -34 32 -2 83 -32 127 -74 21 -21 32 -15 32 16 0 19 -6
32 -18 36 -9 3 -26 19 -37 36 -11 17 -33 39 -49 48 -40 22 -61 38 -114 89 -25
23 -51 42 -59 42 -22 0 -49 17 -140 91 -27 21 -10 26 70 24 53 -1 93 -8 114
-18 18 -10 41 -17 53 -17 11 0 20 -4 20 -9 0 -4 41 -11 91 -13 50 -3 96 -11
102 -17 14 -14 44 -14 49 0 3 8 20 9 56 4 32 -4 50 -11 46 -17 -5 -7 3 -8 22
-4 60 15 104 18 104 7 0 -13 59 -15 79 -2 16 10 71 -6 71 -20 0 -5 11 -9 25
-9 14 0 30 -9 37 -20 8 -13 24 -20 42 -20 16 0 26 -3 23 -6 -9 -9 29 -41 73
-64 66 -34 88 -78 94 -184 2 -48 8 -73 19 -81 9 -6 19 -24 23 -41 3 -16 15
-38 24 -49 10 -11 21 -30 25 -42 3 -13 11 -23 16 -23 5 0 9 -8 9 -19 0 -14 10
-20 40 -25 30 -5 38 -10 33 -22 -3 -8 -16 -20 -29 -25 -25 -9 -33 -38 -11 -40
6 0 19 -2 27 -5 8 -2 32 -7 53 -11 l38 -8 -68 -19 c-73 -20 -152 -72 -174
-113 -12 -22 -11 -26 11 -43 26 -19 34 -47 20 -70 -11 -18 -73 -15 -105 6 -17
11 -36 14 -70 9 -40 -7 -47 -11 -52 -36 -4 -20 -14 -31 -36 -38 -38 -14 -67
-14 -67 -1 0 5 6 7 14 4 18 -7 31 15 17 29 -6 6 -11 19 -11 28 0 26 -16 32
-34 13 -9 -8 -16 -11 -16 -5 0 6 -6 11 -12 11 -15 0 -61 56 -64 78 -4 22 -23
37 -77 56 -33 13 -66 37 -105 78 -98 102 -136 138 -148 138 -6 0 -30 18 -53
40 -22 22 -45 40 -50 40 -4 0 -27 13 -49 30 -23 16 -71 37 -107 46 -36 9 -65
20 -65 25 0 5 -9 9 -20 9 -11 0 -20 5 -20 10 0 6 -37 10 -90 10 l-90 0 0 -145
0 -145 24 0 c14 0 28 -4 31 -10 3 -5 15 -10 26 -10 11 0 50 -16 88 -35 37 -19
72 -35 78 -35 6 0 27 -11 46 -25 54 -36 126 -75 140 -75 7 0 34 -20 61 -45 26
-25 45 -45 40 -45 -5 0 4 -11 19 -25 15 -14 27 -34 27 -44 0 -18 42 -61 60
-61 6 0 10 -9 10 -21 0 -18 55 -99 73 -107 4 -2 7 -8 7 -13 0 -5 8 -18 17 -29
26 -30 42 -106 31 -144 -8 -24 -6 -43 5 -76 14 -40 14 -47 0 -69 -14 -22 -13
-27 5 -60 19 -35 30 -119 36 -282 1 -29 7 -63 13 -74 22 -40 36 -80 34 -94 -1
-7 2 -10 8 -6 6 3 11 15 11 26 0 11 8 22 17 26 10 3 24 11 31 17 8 5 26 10 40
11 27 0 27 0 47 101 3 11 13 31 24 43 11 13 21 27 23 33 2 5 37 12 78 15 70 5
82 3 183 -36 59 -23 121 -41 137 -41 17 0 30 -4 30 -10 0 -5 7 -10 15 -10 8 0
23 -4 33 -9 51 -27 158 -65 237 -86 50 -13 110 -34 135 -48 25 -13 62 -27 83
-31 21 -4 41 -14 44 -22 3 -7 15 -14 27 -14 26 0 76 -22 76 -32 0 -5 7 -8 15
-8 8 0 24 -4 35 -10 11 -5 29 -14 40 -20 10 -5 38 -12 61 -15 23 -3 47 -9 53
-14 6 -4 24 -11 41 -14 27 -5 28 -4 11 9 -11 7 -34 17 -53 20 -31 6 -33 8 -33
50 0 49 -10 59 -61 60 -21 0 -48 9 -64 22 -15 12 -41 22 -57 22 -19 0 -39 10
-57 29 -23 23 -31 27 -35 15 -9 -22 -50 -16 -77 12 -14 15 -31 23 -42 20 -14
-3 -16 0 -12 15 6 17 1 19 -35 19 -43 0 -90 33 -90 65 0 8 -9 15 -20 15 -10 0
-24 9 -30 19 -5 11 -19 22 -29 26 -12 3 -21 17 -23 33 -2 21 -8 27 -28 27 -14
0 -35 4 -47 8 -18 7 -21 13 -16 42 4 22 2 35 -5 35 -6 0 -9 -7 -5 -16 4 -11 2
-15 -7 -12 -25 8 -21 24 17 68 35 41 38 49 39 109 1 77 12 131 25 131 16 0 79
54 79 68 0 7 9 20 20 29 11 10 20 28 20 40 0 33 39 53 122 64 121 15 197 30
317 61 113 29 164 49 176 68 3 5 13 10 21 10 9 0 22 6 30 14 21 22 172 68 223
69 26 0 47 -5 49 -11 2 -7 10 -12 18 -12 8 0 14 -4 14 -9 0 -16 63 -24 210
-28 80 -2 156 -4 170 -4 14 -1 61 0 105 1 47 2 90 -2 102 -9 12 -6 38 -11 58
-11 41 0 95 -27 95 -48 0 -20 23 -40 55 -48 15 -4 30 -15 32 -25 4 -14 15 -19
39 -19 20 0 34 5 34 13 0 6 12 23 25 36 31 29 36 104 8 120 -9 5 -22 26 -28
47 -8 28 -20 43 -50 60 -22 12 -43 20 -47 17 -5 -2 -7 22 -7 54 1 46 3 52 8
28 5 -18 7 0 5 48 -1 42 -7 83 -13 90 -7 10 -27 12 -64 9 l-53 -4 4 43 c3 24
11 49 20 55 12 9 14 24 10 71 -6 61 -6 61 23 67 16 3 41 17 55 31 14 14 33 25
43 25 11 0 21 6 24 14 6 14 -20 73 -43 101 -6 8 -13 20 -14 27 -4 26 -18 38
-45 38 -43 0 -111 49 -111 80 0 14 -5 31 -11 37 -17 17 -4 41 23 45 19 2 24
10 26 40 4 43 25 66 45 49 10 -7 12 -27 9 -66 -4 -44 -1 -56 12 -61 19 -7 21
-31 4 -37 -10 -3 -10 -7 1 -20 17 -21 41 -22 41 -2 0 16 1 16 38 20 38 4 71
45 75 93 3 23 12 51 21 61 13 14 16 28 11 55 -4 20 -11 39 -16 42 -25 15 31
199 64 210 14 4 17 12 13 30 -4 16 -2 26 8 30 20 8 27 29 33 104 3 36 9 69 14
75 5 5 9 21 9 36 0 19 6 30 20 34 15 5 20 15 20 43 1 44 21 71 73 96 41 19 54
42 64 114 4 32 11 46 25 50 10 2 18 9 18 14 0 5 4 7 9 4 16 -10 38 29 54 100
9 40 17 85 17 101 0 32 52 103 76 103 8 0 33 17 55 38 54 50 77 61 122 62 45
0 69 13 115 63 19 20 39 37 46 37 6 1 29 19 51 40 22 22 48 43 57 46 10 3 18
12 18 20 0 8 7 17 16 21 10 3 29 18 43 32 14 15 43 38 63 51 21 14 38 28 38
33 0 4 11 7 25 7 14 0 25 4 25 9 0 10 29 21 85 32 67 13 100 22 105 28 6 8 96
36 176 55 56 14 67 13 121 -3 55 -17 63 -17 99 -3 21 9 57 28 78 44 21 15 42
28 47 28 4 0 30 21 57 48 58 55 84 72 112 72 30 0 24 15 -12 34 -18 8 -29 16
-24 16 5 0 4 6 -1 13 -14 16 -22 53 -29 128 -3 35 -10 82 -16 104 -5 21 -12
64 -15 94 -2 31 -8 60 -12 66 -4 5 -13 28 -19 50 -11 40 -11 40 -57 37 -25 -2
-45 -8 -45 -12 0 -5 -8 -11 -17 -13 -16 -4 -16 -5 -1 -6 37 -2 -34 -81 -74
-81 -10 0 -24 13 -96 93 -28 30 -32 40 -22 52 7 8 10 22 6 30 -6 17 -36 21
-36 5 0 -5 -16 -2 -35 7 -19 9 -32 20 -29 25 3 5 -11 25 -32 45 -36 34 -40 35
-88 27 -28 -4 -64 -7 -79 -6 -21 1 -32 -6 -46 -29 -10 -17 -23 -29 -27 -28 -5
1 -13 -8 -19 -20 -10 -21 -45 -30 -45 -11 0 6 -7 10 -15 10 -8 0 -15 7 -15 16
0 22 -23 12 -35 -14 -12 -26 -18 -27 -36 -6 -10 13 -10 17 2 24 8 6 15 6 17 0
7 -19 20 0 15 20 -4 16 -9 18 -24 9 -10 -5 -45 -8 -77 -6 -45 3 -64 10 -85 29
-15 14 -27 30 -27 35 0 6 -26 14 -57 17 -32 4 -77 10 -100 13 -29 3 -43 1 -43
-7 0 -6 -5 -8 -11 -5 -6 4 -20 -2 -32 -13 -17 -16 -38 -21 -97 -24 -74 -3 -75
-4 -78 -31 -2 -15 -12 -33 -23 -40 -10 -6 -19 -17 -19 -24 0 -16 -16 -17 -25
-3 -5 8 -12 7 -22 -2 -9 -7 -18 -12 -20 -10 -10 7 -21 -1 -32 -24 -9 -21 -14
-24 -26 -14 -11 9 -16 7 -24 -9 -11 -20 -90 -61 -120 -61 -14 0 -14 -2 -1 -10
13 -9 12 -12 -4 -21 -20 -12 -138 -15 -155 -4 -6 3 -11 2 -11 -3 0 -5 -20 -7
-44 -5 -33 4 -49 1 -61 -11 -15 -15 -41 -19 -135 -21 -19 0 -41 -4 -49 -9 -8
-5 -83 -11 -167 -12 -123 -2 -155 0 -165 12 -6 8 -10 14 -8 15 2 0 12 2 22 4
27 5 32 13 19 28 -13 15 -50 16 -60 1 -8 -11 -7 -10 -97 -18 -270 -22 -266
-22 -345 -65 -91 -49 -121 -80 -145 -146 -24 -66 -29 -71 -51 -43 -28 35 -55
43 -61 18 -3 -11 -9 -20 -13 -20 -5 0 -16 -21 -26 -46 -19 -49 -48 -68 -88
-58 -12 3 -35 -2 -51 -10 -44 -23 -59 -20 -115 22 -27 21 -76 46 -107 57 -32
10 -64 23 -70 28 -7 5 -13 7 -13 4 0 -5 -32 6 -97 34 -18 7 -33 17 -33 21 0 4
-11 8 -24 8 -34 0 -84 19 -90 36 -8 21 -30 17 -41 -8 -15 -33 -34 -33 -46 0
-5 16 -21 34 -35 41 -13 6 -27 18 -30 26 -4 8 -17 15 -31 15 -13 0 -22 -4 -19
-9 7 -11 -14 -20 -32 -14 -6 3 -9 10 -6 15 4 7 2 8 -4 4 -7 -4 -17 -4 -22 -1
-18 11 8 34 46 41 19 3 34 10 34 15 0 5 7 9 15 9 8 0 20 9 27 20 7 11 17 20
23 20 6 0 16 9 22 19 7 11 29 28 50 37 21 10 51 28 66 41 16 13 41 26 55 30
31 7 78 39 103 68 13 15 14 26 7 50 -5 16 -14 49 -20 72 -8 34 -14 43 -38 48
-16 3 -37 14 -48 23 -12 9 -37 30 -57 45 -19 16 -33 32 -30 37 3 5 -4 18 -16
29 -18 17 -21 28 -17 66 3 25 2 47 -2 50 -13 8 1 48 25 75 22 25 55 90 55 107
0 5 13 24 30 43 16 18 32 42 36 52 3 10 15 18 28 18 23 0 56 28 56 47 0 5 15
25 34 44 19 19 44 53 56 77 12 23 32 50 45 60 12 10 30 33 40 52 10 19 24 39
31 43 8 4 14 15 14 22 0 8 5 15 10 15 6 0 10 15 10 33 0 52 12 107 21 101 5
-3 9 7 9 23 0 15 7 37 15 47 8 11 15 30 15 42 0 12 7 24 15 28 8 3 15 12 15
21 0 21 21 57 43 73 10 8 16 20 13 28 -7 18 8 60 20 56 5 -1 9 8 10 21 1 12 7
34 15 47 16 31 23 107 9 115 -5 3 -10 17 -10 31 0 14 -7 27 -16 31 -8 3 -13
12 -10 19 7 19 -25 117 -41 127 -7 4 -13 15 -13 23 0 8 -14 56 -30 105 -24 71
-43 104 -88 159 l-57 69 -128 1 c-78 0 -126 -4 -122 -9z m-288 -2625 c0 -8 -6
-12 -15 -9 -11 5 -11 7 0 14 7 5 13 9 14 9 0 0 1 -6 1 -14z m774 -563 c8 -22
6 -39 -10 -81 -28 -72 -28 -157 -1 -172 11 -6 20 -18 20 -26 0 -9 7 -22 15
-30 8 -9 15 -12 15 -7 0 4 7 -3 16 -15 25 -36 2 -194 -26 -177 -4 3 -11 -1
-13 -7 -3 -8 -6 -5 -6 6 -1 10 -8 24 -16 30 -20 14 -36 113 -24 145 5 13 7 33
3 44 -7 21 -7 21 -25 -2 -26 -32 -39 -18 -38 42 1 29 -2 66 -6 83 -10 46 40
194 66 194 12 0 24 -11 30 -27z m-531 -288 c7 -8 19 -15 26 -15 8 0 14 -8 14
-17 0 -9 7 -25 16 -35 16 -16 15 -18 -2 -24 -55 -17 -64 -24 -64 -49 0 -15 11
-36 25 -49 40 -37 33 -49 -22 -41 -53 8 -86 22 -79 34 3 4 -16 13 -42 20 -57
17 -72 28 -72 52 0 20 9 22 70 21 19 -1 55 1 80 4 l45 6 -28 14 c-19 11 -27
22 -27 42 0 46 35 67 60 37z m-292 -193 c9 -5 30 -15 46 -23 65 -31 59 -76 -9
-63 -48 9 -117 70 -95 84 19 12 35 12 58 2z m516 -43 c17 -14 35 -19 55 -16
20 3 31 0 35 -9 3 -8 12 -14 20 -14 8 0 18 -10 21 -22 8 -24 53 -78 66 -78 15
0 96 -87 93 -101 -14 -78 -25 -119 -38 -144 -27 -50 -14 -123 29 -169 14 -15
25 -30 25 -34 1 -13 85 -99 103 -105 18 -7 24 -37 7 -37 -5 0 -10 5 -10 10 0
6 -11 10 -25 10 -31 0 -45 -28 -22 -42 10 -5 17 -15 17 -22 0 -7 6 -13 13 -13
6 0 27 -3 45 -7 17 -4 32 -4 32 1 0 4 15 8 33 8 32 0 32 0 32 50 0 54 8 75 30
75 16 0 28 27 15 35 -6 4 -10 1 -10 -5 0 -20 -32 -6 -41 18 -7 19 -4 24 16 32
14 5 25 14 25 20 0 5 11 12 25 16 14 4 24 11 22 18 -5 14 36 46 58 46 10 0 27
-10 39 -23 11 -12 29 -21 39 -19 23 5 57 -25 57 -49 0 -9 18 -32 40 -49 37
-29 40 -35 38 -76 -1 -29 -7 -50 -18 -57 -13 -10 -15 -24 -10 -77 6 -71 -10
-116 -57 -153 -13 -10 -23 -25 -23 -33 0 -8 -12 -27 -26 -41 -24 -24 -26 -30
-15 -58 12 -35 15 -134 3 -151 -4 -6 -17 -14 -29 -18 -13 -4 -23 -12 -23 -17
0 -6 -9 -7 -20 -4 -11 4 -20 2 -20 -4 0 -6 -6 -11 -14 -11 -8 0 -32 -16 -53
-35 -30 -27 -35 -37 -25 -47 9 -9 12 -8 13 7 0 11 7 -2 15 -29 9 -27 22 -55
30 -63 17 -17 16 -11 3 -72 -7 -33 -17 -52 -28 -56 -17 -5 -18 -15 -13 -95 5
-99 -1 -108 -53 -74 -29 19 -32 45 -9 84 19 32 12 62 -13 59 -38 -3 -44 1 -42
34 1 17 -4 53 -12 79 -11 41 -11 51 6 87 10 23 22 41 27 41 4 0 8 18 8 40 0
31 6 47 26 65 l26 25 -21 44 c-11 25 -30 50 -42 56 -15 9 -18 15 -10 23 6 6
11 19 11 29 0 23 -36 24 -49 1 -10 -17 -12 -17 -25 0 -11 14 -19 15 -40 7 -29
-11 -32 -22 -12 -42 18 -18 30 -58 18 -58 -6 0 -10 -20 -10 -45 1 -57 -10 -68
-68 -70 -43 -1 -49 2 -63 29 -9 17 -31 46 -49 65 -18 18 -37 42 -43 52 -5 11
-19 19 -29 19 -14 0 -20 7 -20 24 0 19 -8 27 -33 35 -34 11 -133 81 -154 108
-6 8 -9 29 -6 48 7 44 -21 99 -63 125 -20 13 -31 27 -28 35 3 7 -1 24 -9 37
-9 13 -14 37 -11 56 4 35 -2 44 -77 120 -30 30 -35 41 -28 60 10 26 3 48 -17
56 -24 9 -15 24 11 18 20 -3 25 0 25 17 0 11 -5 21 -11 21 -11 0 -9 31 7 94 5
21 3 31 -10 38 -23 13 -22 42 2 33 9 -4 28 -10 41 -13 22 -4 23 -3 17 36 -4
35 -2 42 14 47 15 5 19 14 17 38 -2 29 1 32 33 37 25 4 36 11 38 25 9 62 11
65 50 65 20 0 44 5 52 10 21 13 24 13 54 -11z m1893 -631 c-3 -7 -5 -2 -5 12
0 14 2 19 5 13 2 -7 2 -19 0 -25z m-2809 -3 c16 -12 34 -14 72 -9 33 4 50 3
50 -4 0 -6 10 -14 23 -18 12 -4 29 -15 38 -25 12 -14 30 -19 63 -19 37 0 52
-5 72 -25 14 -14 29 -25 35 -25 5 0 16 -18 25 -40 9 -22 23 -40 31 -40 8 0 17
-9 20 -20 3 -11 9 -20 14 -20 14 0 39 -70 39 -110 0 -30 6 -43 26 -59 15 -12
23 -21 18 -21 -4 0 -3 -5 4 -12 7 -7 12 -22 12 -34 0 -27 -47 -39 -71 -18 -8
8 -22 14 -29 14 -22 0 -96 39 -115 60 -10 11 -26 20 -36 20 -9 0 -19 3 -21 8
-7 17 -80 63 -188 118 -63 32 -118 62 -121 67 -4 5 -20 11 -35 13 -60 8 -109
31 -114 56 -4 16 -14 24 -33 26 -36 4 -85 67 -71 90 14 21 61 34 104 27 20 -3
47 -2 60 4 38 15 103 13 128 -4z m-498 -125 c11 -7 6 -10 -22 -10 -20 0 -40 5
-43 10 -8 13 45 13 65 0z m2626 -356 c-3 -8 -10 -14 -16 -14 -17 0 -23 29 -9
46 11 14 13 14 22 -1 5 -9 6 -23 3 -31z m544 -84 c0 -5 -9 -10 -20 -10 -11 0
-20 5 -20 10 0 6 9 10 20 10 11 0 20 -4 20 -10z m-598 -306 c24 -17 38 -35 38
-48 0 -30 26 -64 52 -68 13 -2 24 -11 26 -20 3 -14 -3 -18 -23 -18 -15 0 -25
-5 -24 -12 3 -27 -2 -36 -25 -42 -14 -3 -28 -15 -31 -26 -7 -21 -30 -27 -40
-10 -3 5 1 30 9 54 11 33 13 58 7 91 -5 25 -6 45 -3 45 3 0 1 5 -6 12 -7 7
-12 18 -12 26 0 8 -8 21 -17 28 -35 26 10 15 49 -12z m383 -134 c3 -5 1 -10
-4 -10 -6 0 -11 5 -11 10 0 6 2 10 4 10 3 0 8 -4 11 -10z m-1600 -150 c10 -11
23 -20 30 -20 7 0 12 -20 13 -54 1 -53 0 -55 -28 -61 -17 -4 -30 -13 -30 -20
0 -14 -27 -28 -40 -20 -5 3 -11 23 -15 46 -4 22 -13 43 -21 46 -16 6 -19 33
-4 33 6 0 10 6 10 14 0 14 45 56 60 56 4 0 15 -9 25 -20z m677 -122 c-12 -12
-35 -1 -27 12 3 5 13 6 21 3 10 -4 12 -9 6 -15z m-628 -83 c-4 -10 6 -20 29
-31 45 -22 61 -51 48 -87 -12 -30 -48 -37 -57 -12 -4 8 -18 15 -33 15 -14 0
-37 6 -51 13 -21 11 -25 20 -26 57 0 25 1 48 2 51 2 3 23 6 48 7 36 2 44 -1
40 -13z m12 -172 c-10 -10 -19 5 -10 18 6 11 8 11 12 0 2 -7 1 -15 -2 -18z"/>
<path d="M817 5793 c-17 -16 -5 -32 22 -30 24 2 27 5 20 20 -10 17 -30 22 -42
10z"/>
<path d="M8220 8319 c0 -5 -5 -7 -10 -4 -6 4 -17 2 -25 -5 -7 -6 -40 -14 -72
-17 -32 -3 -63 -10 -69 -15 -7 -4 -34 -8 -62 -7 -45 2 -55 -2 -98 -38 -27 -23
-58 -43 -68 -45 -13 -2 -23 -15 -29 -38 -12 -46 -33 -69 -87 -93 -59 -25 -80
-45 -80 -73 0 -12 -12 -34 -27 -48 -16 -14 -40 -36 -55 -49 -34 -32 -38 -52
-13 -71 31 -23 28 -106 -5 -143 -39 -42 -48 -86 -51 -228 -1 -71 -1 -132 0
-135 7 -18 13 -106 11 -165 -1 -79 -17 -102 -75 -112 -26 -4 -44 1 -79 23 -26
16 -46 34 -46 41 0 6 -5 24 -12 40 -6 15 -12 39 -14 53 -1 14 -2 29 -3 34 -2
19 -41 -28 -41 -50 0 -13 -4 -26 -10 -29 -5 -3 -10 -15 -10 -25 0 -11 -9 -35
-20 -55 -11 -20 -20 -42 -20 -50 0 -8 -4 -15 -10 -15 -5 0 -10 -7 -10 -15 0
-19 -41 -109 -52 -113 -4 -2 -8 -11 -8 -19 0 -8 -13 -41 -29 -72 -16 -31 -39
-78 -52 -106 -12 -27 -33 -67 -46 -87 -13 -21 -23 -44 -23 -51 0 -8 -8 -22
-19 -31 -10 -9 -26 -43 -36 -74 -10 -31 -23 -70 -30 -87 -7 -16 -18 -56 -24
-87 -7 -32 -17 -60 -22 -63 -5 -4 -9 -27 -9 -52 0 -42 -35 -161 -51 -173 -3
-3 -9 -14 -13 -26 -3 -11 -40 -53 -81 -93 -41 -40 -77 -83 -81 -94 -4 -12 -9
-24 -13 -27 -19 -15 -31 -56 -31 -104 l0 -54 40 -7 c21 -4 54 -5 72 -3 31 3
33 1 36 -29 2 -20 11 -37 23 -43 10 -6 19 -17 19 -25 0 -8 21 -24 46 -36 34
-15 43 -24 35 -32 -16 -16 -14 -57 3 -57 27 0 26 -18 -7 -81 -53 -101 -57
-152 -14 -168 18 -7 21 -15 18 -55 -2 -31 3 -54 12 -64 21 -24 29 -89 13 -105
-7 -7 -16 -22 -20 -34 -4 -11 -15 -28 -26 -38 -11 -10 -20 -29 -20 -42 0 -12
-4 -23 -10 -23 -5 0 -9 -3 -9 -7 4 -27 -3 -43 -20 -43 -11 0 -22 -4 -26 -9 -3
-6 -38 -20 -79 -32 -63 -19 -76 -27 -91 -55 -10 -19 -22 -34 -27 -34 -5 0 -17
-20 -28 -45 -11 -25 -23 -45 -28 -45 -11 0 -32 -45 -32 -70 0 -11 4 -20 8 -20
5 0 13 -21 18 -47 11 -57 35 -68 65 -29 12 15 35 32 53 40 17 7 46 27 63 45
17 17 38 31 46 31 8 0 20 7 27 15 14 17 90 21 90 5 0 -5 -13 -10 -28 -10 -20
0 -32 -7 -39 -23 -13 -29 -7 -39 35 -61 39 -20 43 -58 10 -86 -19 -15 -21 -21
-10 -31 20 -21 14 -41 -19 -69 -27 -22 -31 -32 -31 -70 1 -55 -20 -106 -47
-115 -19 -6 -26 -24 -23 -65 1 -27 -27 -67 -57 -79 -22 -10 -32 -22 -38 -49
-7 -29 -14 -38 -34 -40 -37 -4 -91 -53 -104 -93 -9 -27 -20 -37 -51 -47 -21
-7 -54 -12 -74 -10 -19 2 -39 -2 -45 -8 -7 -9 -26 -9 -65 -3 -30 6 -65 11 -77
13 -13 1 -26 6 -30 9 -10 10 -53 8 -53 -2 0 -6 -12 -6 -27 -2 -33 9 -53 4 -53
-14 0 -7 -5 -15 -10 -17 -20 -6 -43 -93 -48 -178 -2 -47 -9 -93 -14 -102 -10
-20 -67 -25 -85 -7 -6 6 -53 12 -104 13 -97 2 -187 24 -209 52 -7 7 -17 14
-22 14 -6 0 -23 12 -38 28 -16 15 -41 37 -57 49 -15 12 -44 35 -63 51 -19 16
-45 34 -58 41 -21 11 -22 11 -16 -16 3 -15 14 -35 23 -43 28 -25 111 -131 113
-143 0 -7 2 -16 3 -22 1 -5 6 -29 10 -53 4 -24 14 -50 23 -58 14 -14 14 -31
-2 -101 -5 -23 28 -53 58 -53 8 0 22 -10 30 -22 21 -30 112 -57 219 -64 87 -7
106 0 67 24 -27 17 -15 39 28 53 21 6 43 16 49 21 17 13 82 13 96 -1 6 -6 34
-11 61 -12 38 0 46 -3 31 -9 -18 -8 -17 -9 8 -9 34 -1 34 -7 -3 -42 -20 -19
-40 -29 -61 -29 -23 0 -30 -4 -27 -16 4 -20 82 -43 148 -44 25 0 88 -7 140
-15 52 -9 147 -18 210 -21 63 -3 128 -9 144 -15 16 -5 48 -9 72 -9 23 0 44 -5
46 -10 2 -6 35 -13 73 -16 66 -5 72 -4 94 20 l23 25 -18 48 c-10 26 -24 54
-30 61 -7 6 -16 22 -19 35 -4 12 -14 38 -23 57 -27 56 -34 255 -14 360 9 47
20 87 24 88 5 2 8 17 8 33 0 16 9 38 20 49 12 12 25 40 30 63 29 141 92 328
115 347 8 7 15 17 15 23 0 17 68 114 100 140 16 14 30 30 30 36 0 6 5 11 10
11 6 0 10 7 10 15 0 8 4 15 8 15 8 0 26 13 67 48 6 5 22 23 36 40 23 29 31 32
70 28 25 -2 45 -9 48 -17 12 -40 115 -180 135 -185 27 -6 44 -48 39 -97 -3
-33 0 -37 31 -52 36 -17 56 -14 56 10 0 10 10 12 40 8 28 -4 40 -2 40 7 0 11
39 49 51 50 12 0 17 -55 6 -62 -17 -11 -39 -10 -32 2 3 6 2 10 -4 10 -19 0
-23 -21 -6 -34 11 -8 36 -11 66 -8 39 4 50 1 55 -12 9 -22 21 -20 46 9 11 13
25 22 30 19 13 -8 9 -64 -5 -64 -7 0 -21 -16 -31 -35 -10 -19 -28 -37 -38 -41
-11 -3 -28 -23 -37 -45 -10 -21 -20 -36 -23 -33 -3 2 -9 -7 -12 -22 -4 -15
-21 -40 -37 -57 -17 -17 -35 -41 -40 -54 -5 -13 -25 -31 -44 -39 -19 -8 -41
-26 -49 -42 -8 -15 -30 -43 -49 -62 -22 -23 -36 -49 -40 -74 -3 -21 -15 -49
-27 -61 -11 -12 -18 -24 -15 -27 3 -3 -1 -11 -10 -18 -8 -7 -15 -16 -15 -21 0
-4 -13 -28 -30 -52 -16 -25 -30 -52 -30 -60 0 -8 -3 -17 -7 -19 -12 -5 -73
-95 -73 -107 0 -6 -4 -11 -9 -11 -13 0 -29 -88 -35 -197 -4 -74 -2 -93 9 -93
7 0 20 -14 29 -31 12 -25 13 -31 1 -35 -19 -8 -55 14 -55 32 0 9 -17 32 -38
52 -55 54 -63 66 -67 109 -4 32 -3 34 6 14 9 -23 10 -23 29 -6 11 10 20 16 21
14 0 -2 2 -14 3 -27 4 -31 22 -48 29 -28 4 9 2 16 -3 16 -6 0 -10 9 -10 19 0
11 -4 21 -9 23 -5 2 -11 27 -14 57 -3 29 -10 58 -16 64 -6 6 -11 18 -11 27 0
8 -9 22 -20 30 -11 8 -20 18 -20 23 0 4 9 17 20 29 38 41 18 66 -44 54 -24 -5
-36 -13 -40 -29 -3 -12 -1 -23 4 -25 5 -2 4 -15 -1 -32 -7 -20 -7 -35 0 -49
18 -32 13 -40 -21 -36 -41 6 -46 12 -49 63 -3 41 -12 54 -22 30 -3 -7 -6 -3
-6 10 -1 22 -21 32 -21 10 1 -41 29 -181 39 -191 6 -6 11 -21 11 -34 0 -13 5
-23 10 -23 6 0 10 -9 10 -20 0 -11 5 -20 10 -20 6 0 10 -9 10 -21 0 -11 9 -32
20 -46 11 -14 20 -31 20 -37 0 -6 9 -17 20 -24 13 -8 20 -23 20 -43 0 -20 4
-28 12 -23 8 5 9 2 5 -9 -3 -10 -2 -18 3 -18 6 -1 16 -2 22 -3 7 0 14 -10 17
-21 5 -29 52 -65 83 -65 15 0 30 -4 33 -10 7 -11 45 -14 45 -3 0 3 -7 14 -16
24 -18 20 -24 80 -9 86 14 4 128 -104 121 -116 -3 -5 7 -14 23 -21 16 -6 35
-25 41 -41 7 -16 17 -29 23 -29 6 0 25 -13 42 -29 16 -16 44 -33 60 -39 17 -5
29 -14 28 -20 -2 -6 22 -16 52 -22 30 -6 55 -15 55 -19 0 -10 86 -32 246 -62
92 -17 474 -1 474 21 0 4 37 10 83 14 230 21 324 27 455 32 122 5 144 8 155
24 7 10 31 21 52 25 71 12 138 37 255 95 63 32 132 61 152 64 21 4 51 18 67
31 16 14 38 25 49 25 12 0 24 5 27 10 3 6 21 10 38 10 18 0 46 9 63 19 33 20
40 21 239 47 72 9 136 18 143 20 9 3 12 410 12 1994 0 1094 -3 1990 -7 1990
-13 0 -57 43 -76 73 -14 21 -17 46 -16 108 1 70 -1 83 -20 103 -13 13 -24 32
-25 42 -2 11 -9 19 -17 19 -19 0 -26 95 -8 106 9 5 13 40 13 121 -1 62 -2 121
-4 130 -5 29 -53 67 -106 86 -53 18 -120 60 -167 105 -21 20 -28 34 -24 50 8
29 -12 54 -49 63 -16 3 -40 17 -54 30 -14 13 -44 26 -67 30 -24 3 -54 17 -68
30 -18 16 -39 24 -73 25 -26 1 -65 9 -87 16 -22 8 -53 12 -68 9 -30 -6 -69 10
-103 42 -11 11 -36 27 -54 37 -17 9 -52 37 -76 61 -25 24 -49 44 -55 44 -5 0
-13 8 -17 18 -17 39 -48 82 -59 82 -7 0 -13 5 -13 11 0 12 -17 28 -78 77 -42
34 -50 36 -160 34 -78 -2 -98 1 -118 17 -13 10 -21 20 -19 23 17 17 -148 58
-202 51 -19 -3 -42 3 -64 16 -36 22 -79 28 -79 10z m1269 -2060 c17 -6 31 -18
32 -27 0 -11 2 -13 6 -4 4 9 8 10 18 2 7 -6 19 -9 26 -8 8 2 16 -10 20 -32 3
-19 7 -30 8 -23 2 19 41 2 41 -18 0 -12 -7 -19 -20 -19 -11 0 -20 5 -20 10 0
6 -9 10 -20 10 -11 0 -20 7 -20 15 0 8 -6 15 -14 15 -8 0 -17 7 -20 16 -6 15
-9 15 -33 -1 -23 -15 -33 -16 -80 -5 -52 11 -93 38 -93 60 0 29 96 34 169 9z
m-129 -126 c0 -7 7 -13 16 -11 22 4 29 -18 9 -26 -9 -3 -25 3 -37 14 -12 11
-32 20 -45 20 -24 0 -32 15 -11 22 23 8 68 -5 68 -19z m-850 -283 c0 -5 10
-10 23 -10 32 0 87 -53 87 -84 0 -24 -46 -76 -86 -99 -16 -9 -19 -82 -4 -92 6
-4 2 -14 -9 -26 -32 -34 -47 -69 -33 -78 17 -10 51 -145 54 -216 l3 -60 -40
-7 c-31 -5 -42 -3 -50 10 -42 68 -88 77 -74 14 6 -28 5 -39 -6 -45 -8 -4 -17
-27 -21 -52 -9 -63 -51 -105 -78 -78 -13 13 -44 10 -39 -4 3 -8 -6 -17 -25
-24 -27 -9 -32 -17 -38 -55 -4 -30 -11 -44 -22 -44 -33 0 -81 -24 -86 -44 -3
-12 -6 -37 -6 -57 0 -20 -3 -38 -6 -42 -3 -3 -29 2 -57 11 -29 8 -83 16 -122
18 -38 1 -85 4 -103 7 -30 6 -34 3 -50 -31 -14 -31 -23 -38 -52 -40 -20 -2
-42 -12 -50 -23 -9 -11 -34 -26 -55 -34 -39 -13 -40 -15 -41 -61 -1 -34 -6
-51 -20 -61 -12 -9 -18 -23 -16 -39 4 -31 -16 -94 -30 -94 -6 0 -26 15 -44 34
-25 26 -34 30 -38 19 -10 -24 -7 -63 4 -63 6 0 10 -6 10 -13 0 -16 -39 -55
-41 -41 -3 16 -8 88 -9 114 -1 55 13 115 31 128 27 19 37 69 33 158 -3 52 0
96 10 127 10 32 12 58 6 78 -5 16 -9 30 -8 32 0 1 4 25 8 53 8 51 12 56 91
130 17 16 59 79 74 111 8 18 25 38 37 44 13 7 34 23 47 35 13 13 33 24 45 24
21 0 70 44 100 91 9 15 30 29 46 33 18 3 35 15 41 28 5 13 28 32 50 42 22 11
49 34 60 53 11 18 24 33 28 33 4 0 14 11 21 25 7 13 23 28 34 32 23 8 21 8 57
0 22 -6 28 -2 42 32 9 21 17 44 17 52 1 10 5 9 15 -5 13 -18 15 -18 49 3 33
21 37 21 59 6 27 -18 75 -12 84 11 2 7 18 16 34 19 16 4 31 11 34 16 8 12 25
12 25 -1z m460 -117 l-13 -28 -9 28 c-5 15 -15 27 -21 27 -7 0 -3 7 8 15 17
13 21 13 34 0 12 -12 13 -19 1 -42z m122 -33 c29 -28 30 -32 15 -47 -13 -13
-19 -14 -31 -3 -9 7 -16 17 -16 23 0 6 -10 21 -22 34 l-21 23 21 0 c12 0 36
-14 54 -30z m-84 -109 c8 -23 25 -49 39 -58 14 -9 38 -30 55 -46 26 -26 29
-35 26 -81 -3 -49 -4 -51 -35 -54 -36 -4 -51 15 -51 62 0 19 -8 35 -22 46 -13
10 -20 22 -16 28 3 6 2 13 -4 17 -6 4 -8 11 -4 16 3 6 -7 27 -23 47 -38 48
-47 73 -31 83 21 13 51 -14 66 -60z m-327 -44 c25 -19 44 -88 41 -145 -2 -29
-7 -52 -11 -52 -6 0 -40 70 -55 114 -4 12 -13 17 -26 13 -16 -4 -20 0 -20 21
0 31 9 47 30 55 22 8 23 8 41 -6z m-1905 -21 c3 -8 0 -24 -6 -36 l-12 -22 -21
20 c-17 17 -18 23 -7 36 16 20 39 21 46 2z m1622 -515 c3 -8 -1 -12 -9 -9 -7
2 -15 10 -17 17 -3 8 1 12 9 9 7 -2 15 -10 17 -17z m-1548 -389 c0 -18 -26
-32 -57 -32 -38 0 -44 16 -10 30 28 11 67 12 67 2z m770 -545 c0 -16 -35 -1
-38 16 -3 16 -1 17 17 5 12 -7 21 -17 21 -21z m-2030 -811 c0 -3 -4 -8 -10
-11 -5 -3 -10 -1 -10 4 0 6 5 11 10 11 6 0 10 -2 10 -4z m1484 -308 c-3 -5 2
-20 11 -35 12 -18 14 -28 6 -36 -8 -8 -11 -8 -11 2 0 7 -4 10 -9 6 -20 -12
-43 70 -24 88 9 10 34 -13 27 -25z"/>
<path d="M8340 5290 c0 -5 5 -10 10 -10 6 0 10 5 10 10 0 6 -4 10 -10 10 -5 0
-10 -4 -10 -10z"/>
<path d="M2980 7841 c0 -25 6 -27 13 -6 4 8 2 17 -3 20 -6 4 -10 -3 -10 -14z"/>
<path d="M6533 7610 c-13 -5 -23 -14 -23 -19 0 -5 -19 -9 -42 -9 -89 2 -106
-1 -113 -22 -3 -11 -14 -20 -24 -20 -24 0 -151 -66 -173 -90 -10 -10 -26 -21
-37 -25 -13 -4 -25 -22 -32 -46 -10 -31 -17 -39 -36 -39 -12 0 -23 -5 -23 -10
0 -14 -48 -32 -88 -32 -22 0 -36 -6 -40 -16 -3 -10 -14 -26 -24 -36 -10 -11
-18 -31 -18 -45 0 -16 -14 -42 -35 -66 -20 -22 -43 -56 -51 -76 -11 -27 -23
-38 -42 -41 -15 -3 -34 -7 -42 -9 -21 -6 -26 64 -6 105 8 17 21 50 29 72 13
39 13 41 -6 36 -10 -3 -59 -44 -108 -91 -49 -47 -114 -102 -144 -120 -30 -19
-55 -40 -55 -47 0 -7 -13 -23 -29 -36 -37 -29 -91 -102 -91 -124 0 -8 -4 -13
-9 -10 -8 5 -38 -72 -33 -86 1 -5 -3 -8 -8 -8 -13 0 -13 -77 -1 -84 23 -14 60
16 96 78 21 36 46 73 56 82 26 24 149 66 199 69 25 1 79 6 120 10 l76 7 11
-34 c23 -76 -32 -111 -156 -101 l-68 6 -52 -53 c-29 -29 -61 -72 -73 -96 -11
-24 -24 -44 -29 -44 -4 0 -13 -19 -20 -42 -6 -24 -21 -56 -33 -73 -11 -16 -21
-33 -21 -36 0 -15 -41 -89 -50 -89 -5 0 -25 -14 -43 -31 -23 -21 -31 -35 -27
-48 6 -21 90 -65 143 -76 18 -4 31 -9 28 -12 -3 -3 0 -10 7 -17 16 -14 105
-45 112 -38 3 3 5 18 5 34 0 15 4 28 8 28 5 0 19 19 32 42 30 53 51 78 67 78
6 0 24 11 39 25 33 31 40 31 60 1 8 -14 25 -26 37 -28 17 -2 21 -9 19 -27 -2
-13 1 -33 6 -45 6 -12 13 -29 16 -38 5 -18 77 -38 109 -30 30 8 40 38 22 71
-8 17 -15 38 -15 48 0 29 28 61 56 65 21 2 29 13 45 58 23 67 70 114 104 106
13 -3 26 -2 30 4 3 5 25 7 49 4 38 -6 45 -3 60 17 14 20 14 25 2 37 -19 19 -1
74 22 70 16 -3 55 59 46 74 -2 3 0 8 5 10 10 3 35 98 48 183 7 46 10 50 35 48
32 -2 41 18 40 84 -1 24 2 43 7 43 12 0 39 64 46 114 4 26 14 53 21 61 8 7 14
29 14 47 0 46 13 62 43 54 23 -5 25 -3 25 32 1 46 15 84 47 126 38 50 36 116
-3 116 -9 0 -26 7 -36 15 -22 17 -50 18 -83 5z"/>
<path d="M940 7430 c6 -11 13 -20 15 -20 3 0 5 9 5 20 0 11 -7 20 -15 20 -13
0 -14 -4 -5 -20z"/>
<path d="M545 7030 c3 -5 8 -10 11 -10 2 0 4 5 4 10 0 6 -5 10 -11 10 -5 0 -7
-4 -4 -10z"/>
<path d="M595 6990 c3 -5 8 -10 11 -10 2 0 4 5 4 10 0 6 -5 10 -11 10 -5 0 -7
-4 -4 -10z"/>
<path d="M10152 6840 c0 -14 2 -19 5 -12 2 6 2 18 0 25 -3 6 -5 1 -5 -13z"/>
<path d="M4900 5552 c0 -25 19 -42 47 -42 17 0 21 4 16 18 -14 37 -63 56 -63
24z"/>
<path d="M5066 5535 c-45 -16 -69 -35 -44 -35 9 0 26 -13 39 -30 13 -16 40
-35 59 -41 19 -6 45 -15 57 -21 14 -7 54 -9 105 -5 61 4 90 2 108 -8 14 -8 40
-14 58 -15 38 0 71 -15 89 -40 6 -9 31 -23 55 -30 27 -9 57 -30 82 -57 21 -24
43 -43 49 -43 19 0 135 -133 141 -162 3 -18 17 -35 36 -46 16 -9 30 -21 30
-27 0 -5 19 -19 42 -29 40 -19 107 -76 109 -93 0 -4 2 -30 3 -56 1 -46 1 -48
-14 -29 -16 19 -17 19 -28 1 -13 -21 -37 -25 -47 -9 -4 6 -1 17 5 25 10 12 9
15 -4 15 -9 0 -16 4 -16 9 0 5 -11 12 -24 15 -18 4 -25 15 -30 46 -6 37 -8 39
-26 28 -21 -13 -29 -68 -10 -68 6 0 10 -6 10 -14 0 -7 7 -19 16 -27 10 -8 14
-22 10 -40 -10 -50 9 -129 36 -153 27 -22 44 -56 28 -56 -5 0 -16 -7 -24 -15
-12 -12 -20 -13 -35 -5 -27 14 -34 0 -26 -54 4 -25 4 -62 0 -84 -6 -37 -8 -39
-38 -36 -17 2 -35 11 -40 19 -4 8 -17 15 -28 15 -16 0 -19 -4 -13 -22 17 -58
34 -87 74 -125 34 -34 42 -49 43 -80 0 -24 7 -43 19 -51 24 -17 23 -28 -7 -60
-14 -15 -25 -33 -25 -41 0 -8 -3 -12 -6 -8 -4 3 -15 -10 -25 -31 -20 -39 -25
-92 -9 -92 6 0 10 -6 10 -14 0 -38 95 -62 129 -32 23 20 54 27 71 16 13 -9 12
-12 -4 -25 -11 -8 -28 -15 -38 -15 -23 0 -23 -16 2 -65 11 -21 19 -52 17 -69
-2 -25 2 -32 20 -34 18 -3 24 4 34 37 7 22 23 50 35 62 13 13 24 29 24 38 0 8
9 24 19 35 16 18 18 29 11 71 -8 55 -5 70 22 100 10 10 24 37 30 60 7 22 21
49 31 60 34 37 46 71 52 156 5 71 3 93 -14 139 -12 30 -21 65 -21 77 0 12 -11
64 -25 115 -14 51 -25 103 -25 114 0 12 -7 24 -15 28 -8 3 -15 14 -15 25 0 11
-4 23 -10 26 -5 3 -10 19 -10 36 0 16 -3 29 -8 29 -12 0 -35 61 -39 104 -3 32
-12 48 -42 76 -47 42 -93 114 -86 133 7 16 -29 100 -38 90 -4 -3 -7 1 -7 11 0
9 -4 15 -9 12 -5 -3 -21 21 -35 54 -15 33 -32 60 -37 60 -14 0 -31 19 -48 53
-8 15 -20 27 -27 27 -7 0 -15 6 -18 13 -5 10 -7 10 -12 0 -9 -20 -58 -15 -74
7 -14 20 -47 29 -35 10 4 -6 -5 -10 -19 -10 -14 0 -26 5 -26 10 0 6 -32 10
-76 10 -46 0 -73 -4 -69 -10 9 -14 -121 -2 -172 16 -24 9 -47 13 -52 10 -5 -4
-12 -2 -15 3 -3 5 -25 6 -49 4 -31 -4 -46 -1 -56 11 -16 19 -15 19 -65 1z
m1064 -841 c0 -15 -6 -24 -15 -24 -15 0 -21 40 -9 53 12 11 24 -3 24 -29z m16
-48 c8 -8 14 -26 14 -40 0 -14 5 -26 10 -26 6 0 10 -9 10 -19 0 -11 5 -23 10
-26 12 -7 14 -75 2 -75 -18 0 -54 53 -49 72 3 10 -1 31 -9 46 -14 27 -19 82
-8 82 3 0 12 -6 20 -14z m-78 -126 c12 0 13 -3 4 -12 -15 -15 -16 -72 -2 -99
11 -20 -3 -28 -15 -9 -3 6 -16 8 -28 5 -26 -6 -71 30 -79 62 -5 18 0 22 29 28
19 3 37 13 40 21 3 8 12 13 20 10 8 -3 22 -6 31 -6z m148 -137 c-3 -3 -11 -3
-19 0 -9 3 -12 16 -9 39 l5 33 14 -34 c8 -18 12 -36 9 -38z"/>
<path d="M540 4892 c0 -15 28 -47 35 -40 11 11 -5 48 -21 48 -8 0 -14 -4 -14
-8z"/>
<path d="M710 4704 c0 -8 19 -27 43 -44 23 -16 49 -35 57 -42 8 -7 20 -13 27
-13 7 0 19 -9 26 -19 9 -12 20 -17 31 -13 13 5 6 18 -41 65 -32 32 -67 62 -78
66 -36 15 -65 15 -65 0z"/>
<path d="M5629 3984 c-12 -34 -4 -61 23 -70 23 -7 48 16 48 44 0 15 -37 52
-52 52 -5 0 -13 -12 -19 -26z"/>
<path d="M3710 3985 c-7 -9 -9 -22 -5 -32 8 -19 11 -28 13 -51 1 -7 6 -11 11
-8 5 4 11 1 13 -4 2 -6 17 -8 37 -4 31 6 32 9 27 38 -6 30 -49 75 -72 76 -6 0
-17 -7 -24 -15z"/>
<path d="M6386 3944 c-22 -21 -17 -59 7 -58 9 1 24 2 32 3 21 1 19 35 -4 55
-17 16 -20 16 -35 0z"/>
<path d="M5720 3911 c0 -6 5 -13 10 -16 6 -3 10 1 10 9 0 9 -4 16 -10 16 -5 0
-10 -4 -10 -9z"/>
<path d="M0 3817 c0 -106 4 -113 89 -139 23 -7 41 -16 41 -20 0 -5 9 -8 20 -8
11 0 20 -4 20 -10 0 -5 6 -10 13 -10 8 0 22 -9 33 -21 10 -11 47 -35 83 -52
69 -34 93 -53 104 -80 3 -9 16 -17 27 -17 11 0 20 -7 20 -15 0 -19 58 -85 75
-85 8 0 16 -9 20 -20 3 -11 9 -19 13 -18 4 1 15 -2 24 -6 20 -9 65 18 73 45 7
21 25 26 25 7 0 -7 6 -4 12 6 9 16 7 22 -10 34 -12 8 -22 23 -22 33 0 10 -4
21 -10 24 -5 3 -10 15 -10 25 0 11 -16 36 -35 56 -19 19 -35 45 -35 56 0 23
-105 128 -128 128 -5 0 -17 9 -27 20 -10 11 -29 20 -42 20 -12 0 -31 8 -41 18
-40 40 -193 102 -289 117 l-43 7 0 -95z"/>
<path d="M5687 3883 c-14 -14 -6 -56 17 -86 17 -22 24 -44 23 -70 -1 -35 16
-68 29 -55 3 4 2 26 -3 50 -6 25 -6 56 -1 73 17 59 17 64 2 58 -8 -3 -25 4
-38 16 -12 12 -26 18 -29 14z"/>
<path d="M3803 3843 c-4 -10 2 -23 16 -34 18 -15 26 -16 42 -6 25 15 24 22 -3
41 -29 21 -47 20 -55 -1z"/>
<path d="M3990 3815 c-10 -12 -10 -15 1 -15 23 -1 -74 -46 -114 -54 -27 -5
-37 -12 -37 -26 0 -10 9 -22 20 -25 11 -3 20 -11 20 -16 0 -6 12 -9 28 -7 24
3 27 -1 30 -28 3 -30 6 -32 55 -38 119 -13 194 -16 227 -8 31 7 35 12 33 37
-3 35 -34 80 -56 80 -8 0 -24 10 -35 23 -11 12 -25 22 -31 22 -6 0 -16 11 -21
25 -11 29 -22 31 -40 10 -16 -19 -30 -19 -30 0 0 23 -36 37 -50 20z"/>
<path d="M3155 3754 c-11 -3 -34 -12 -52 -20 -41 -19 -34 -44 12 -44 19 0 37
-4 40 -10 3 -5 16 -10 28 -11 13 0 17 -3 8 -6 -9 -4 0 -12 25 -24 l39 -17 30
32 c17 18 40 36 53 40 31 10 27 23 -10 31 -18 4 -35 11 -38 16 -7 10 -107 20
-135 13z"/>
<path d="M2910 3615 c0 -8 2 -15 4 -15 2 0 6 7 10 15 3 8 1 15 -4 15 -6 0 -10
-7 -10 -15z"/>
<path d="M5130 3556 c0 -8 5 -18 10 -21 6 -3 10 1 10 9 0 8 -4 18 -10 21 -5 3
-10 -1 -10 -9z"/>
<path d="M7010 3451 c0 -5 5 -11 12 -13 19 -7 58 3 52 13 -7 12 -64 12 -64 0z"/>
<path d="M7020 3323 c0 -5 7 -16 14 -26 12 -15 15 -15 26 -3 6 9 9 20 5 26 -7
11 -45 14 -45 3z"/>
<path d="M2700 3231 c-72 -28 -104 -122 -63 -181 10 -14 17 -27 16 -30 -5 -11
70 -80 86 -80 9 0 22 -5 28 -11 7 -7 23 -13 37 -14 49 -6 65 46 36 111 -11 23
-24 45 -29 49 -12 7 -48 82 -55 115 -6 29 -34 50 -56 41z"/>
<path d="M3084 3220 c-12 -4 -25 -17 -29 -27 -4 -10 -10 -103 -13 -206 -4
-170 -2 -197 18 -280 26 -107 38 -137 57 -137 7 0 18 -9 25 -20 7 -11 17 -20
21 -20 5 0 14 -6 21 -12 80 -77 215 -146 285 -148 37 0 131 -31 131 -42 0 -5
9 -8 19 -8 11 0 23 -4 26 -10 3 -5 16 -10 28 -10 12 0 35 -7 51 -15 15 -8 49
-15 75 -15 25 0 87 -7 137 -15 64 -10 101 -12 125 -5 19 6 67 10 107 10 60 0
75 3 89 20 10 11 21 20 25 20 5 0 21 13 38 28 21 20 28 34 23 50 -4 17 -1 22
13 22 9 0 14 3 11 7 -4 3 -61 7 -128 7 -119 1 -121 1 -143 29 -12 15 -27 27
-34 27 -7 0 -10 5 -7 10 4 6 11 8 16 5 8 -5 10 -1 9 20 -1 9 53 56 75 67 65
30 105 64 105 88 0 16 -73 60 -98 60 -4 0 -37 27 -72 60 -35 33 -70 60 -77 60
-7 0 -14 8 -14 18 -1 9 -3 29 -4 43 -6 47 20 102 56 123 19 10 42 29 51 41 16
22 16 26 2 61 -8 20 -22 44 -31 52 -16 17 -77 18 -132 2 -24 -7 -50 -5 -95 6
-156 40 -314 54 -350 31 -42 -27 -80 -35 -94 -21 -19 21 -31 17 -64 -18 -28
-30 -46 -44 -93 -67 -11 -6 -38 -22 -60 -36 -59 -37 -64 -38 -80 -25 -17 14
-20 51 -6 66 5 5 16 29 25 54 12 34 12 46 3 52 -14 9 -16 9 -43 -2z m293 -376
c3 -8 -1 -22 -9 -31 -13 -12 -20 -13 -38 -3 -21 11 -21 12 -3 30 22 23 42 25
50 4z m456 -104 c6 -21 -16 -50 -37 -50 -7 0 -21 8 -30 19 -16 17 -16 20 -1
35 23 23 61 21 68 -4z"/>
<path d="M0 3138 c0 -38 3 -45 28 -54 100 -41 130 -52 157 -58 16 -4 48 -26
71 -49 49 -50 112 -101 137 -110 10 -4 25 -20 35 -36 9 -17 27 -36 39 -42 12
-7 27 -25 33 -42 10 -29 11 -30 30 -12 17 15 19 27 15 89 -7 92 -11 103 -41
110 -14 4 -41 30 -66 64 -41 58 -82 82 -138 82 -24 0 -110 41 -110 52 0 4 -7
8 -15 8 -9 0 -32 8 -53 18 -20 10 -56 20 -79 21 l-43 3 0 -44z"/>
<path d="M0 2918 c0 -52 4 -88 10 -88 32 0 152 -130 176 -191 19 -45 45 -59
109 -56 l50 2 -2 40 c-2 31 -12 48 -48 85 -25 25 -45 52 -45 59 0 32 -34 69
-69 75 -20 3 -50 18 -67 33 -17 16 -40 33 -50 39 -11 6 -29 28 -41 50 l-23 39
0 -87z"/>
<path d="M5793 2933 c9 -2 23 -2 30 0 6 3 -1 5 -18 5 -16 0 -22 -2 -12 -5z"/>
<path d="M732 2888 c-12 -26 -26 -68 -27 -83 -2 -21 -17 -55 -24 -55 -4 0 -13
-11 -19 -25 -6 -14 -18 -25 -26 -25 -8 0 -24 -17 -36 -37 -17 -28 -21 -52 -21
-107 0 -66 2 -73 29 -97 24 -22 29 -34 30 -75 1 -84 -54 -128 -117 -94 -24 13
-50 -17 -81 -94 -19 -48 -21 -64 -12 -88 6 -16 6 -30 1 -34 -5 -3 -9 -18 -9
-34 0 -16 -4 -32 -10 -35 -5 -3 -10 -19 -10 -35 0 -16 -11 -42 -27 -61 -24
-28 -28 -43 -31 -108 -4 -97 -7 -112 -32 -141 -11 -13 -20 -31 -20 -42 0 -19
-16 -23 -39 -9 -22 14 -26 95 -7 142 22 54 22 134 1 183 -9 22 -37 59 -63 83
-42 40 -46 49 -53 104 -4 34 -4 73 1 88 5 17 3 33 -5 44 -11 16 -13 16 -29 -1
-9 -10 -16 -24 -16 -31 0 -7 -4 -9 -10 -6 -5 3 -15 -5 -22 -19 -6 -14 -19 -26
-30 -26 -17 0 -18 -20 -18 -459 l0 -459 31 -6 c34 -6 73 10 103 43 13 14 31
21 58 21 28 0 38 4 38 16 0 20 63 84 83 84 9 0 22 9 30 20 7 10 25 24 40 29
16 6 27 18 27 29 0 19 39 62 56 62 10 0 64 82 64 98 0 6 6 15 13 19 16 10 34
54 42 104 5 24 20 50 47 75 54 53 68 83 69 154 1 33 5 63 10 66 4 2 6 10 3 17
-2 7 3 42 11 78 10 38 16 105 16 164 0 55 4 117 10 139 6 21 7 45 3 55 -11 25
-15 149 -4 156 5 3 12 27 16 53 3 26 12 57 20 68 7 12 10 25 6 29 -4 4 -12 23
-17 43 -12 43 -28 50 -43 20z"/>
<path d="M4348 2727 c-82 -78 -79 -90 21 -89 91 1 106 6 121 41 9 23 9 34 -1
52 -14 26 -49 58 -64 58 -5 0 -40 -28 -77 -62z"/>
<path d="M4512 2615 c0 -16 2 -22 5 -12 2 9 2 23 0 30 -3 6 -5 -1 -5 -18z"/>
<path d="M7425 2430 c3 -5 8 -10 11 -10 2 0 4 5 4 10 0 6 -5 10 -11 10 -5 0
-7 -4 -4 -10z"/>
</g>
</svg>
